<svg width="78" height="79" viewBox="0 0 78 79" fill="none" xmlns="http://www.w3.org/2000/svg">
<circle cx="39" cy="39.321" r="29" fill="#5281E4" fill-opacity="0.94"/>
<path d="M52.9167 17.125H25.0833C20.6881 17.125 17.125 20.6881 17.125 25.0833V52.9167C17.125 57.3119 20.6881 60.875 25.0833 60.875H52.9167C57.3119 60.875 60.875 57.3119 60.875 52.9167V25.0833C60.875 20.6881 57.3119 17.125 52.9167 17.125Z" stroke="black" stroke-width="2" stroke-miterlimit="10"/>
<path d="M39 48.9375C44.4883 48.9375 48.9375 44.4883 48.9375 39C48.9375 33.5117 44.4883 29.0625 39 29.0625C33.5117 29.0625 29.0625 33.5117 29.0625 39C29.0625 44.4883 33.5117 48.9375 39 48.9375Z" stroke="black" stroke-width="2" stroke-miterlimit="10"/>
<path d="M51.9167 29.0626C53.562 29.0626 54.8958 27.7288 54.8958 26.0834C54.8958 24.4381 53.562 23.1042 51.9167 23.1042C50.2713 23.1042 48.9375 24.4381 48.9375 26.0834C48.9375 27.7288 50.2713 29.0626 51.9167 29.0626Z" fill="black"/>
</svg>
