<svg id="Layer_1" data-name="Layer 1" xmlns="http://www.w3.org/2000/svg" viewBox="0 0 32 32"><defs><style>.cls-1{fill:#385988;}.cls-2{fill:#fff;}</style></defs><title>Instagram</title><rect class="cls-1" width="100%" height="100%"/><path class="cls-2" d="M23.62,6H8.38A2.37,2.37,0,0,0,6,8.37V23.63A2.37,2.37,0,0,0,8.38,26H23.62A2.37,2.37,0,0,0,26,23.63V8.37A2.37,2.37,0,0,0,23.62,6ZM24,11.44a0.56,0.56,0,0,1-.56.56H20.56A0.56,0.56,0,0,1,20,11.44V8.56A0.56,0.56,0,0,1,20.56,8h2.88a0.56,0.56,0,0,1,.56.56v2.88Zm-8,.74A3.84,3.84,0,1,1,12.18,16,3.84,3.84,0,0,1,16,12.19Zm8,10.93a1.16,1.16,0,0,1-.8.88H8.84A1.22,1.22,0,0,1,8,23.12V14h2.16a12.34,12.34,0,0,0-.22,1.81A6.17,6.17,0,0,0,16,22a6.22,6.22,0,0,0,6.08-6.23A11.84,11.84,0,0,0,21.89,14H24v9.12Z"/></svg>