<svg width="16" height="16" viewBox="0 0 16 16" fill="none" xmlns="http://www.w3.org/2000/svg">
<g id="select_arrow">
<rect width="16" height="16"/>
<path id="Vector" fill-rule="evenodd" clip-rule="evenodd" d="M1.64604 4.64599C1.69249 4.59943 1.74766 4.56249 1.80841 4.53728C1.86915 4.51207 1.93427 4.4991 2.00004 4.4991C2.06581 4.4991 2.13093 4.51207 2.19167 4.53728C2.25242 4.56249 2.30759 4.59943 2.35404 4.64599L8.00004 10.293L13.646 4.64599C13.6925 4.59951 13.7477 4.56263 13.8085 4.53747C13.8692 4.51231 13.9343 4.49936 14 4.49936C14.0658 4.49936 14.1309 4.51231 14.1916 4.53747C14.2524 4.56263 14.3076 4.59951 14.354 4.64599C14.4005 4.69248 14.4374 4.74767 14.4626 4.80841C14.4877 4.86915 14.5007 4.93425 14.5007 4.99999C14.5007 5.06574 14.4877 5.13084 14.4626 5.19158C14.4374 5.25232 14.4005 5.30751 14.354 5.35399L8.35404 11.354C8.30759 11.4006 8.25242 11.4375 8.19167 11.4627C8.13093 11.4879 8.06581 11.5009 8.00004 11.5009C7.93427 11.5009 7.86915 11.4879 7.80841 11.4627C7.74766 11.4375 7.69248 11.4006 7.64604 11.354L1.64604 5.35399C1.59948 5.30755 1.56253 5.25237 1.53733 5.19163C1.51212 5.13088 1.49915 5.06576 1.49915 4.99999C1.49915 4.93423 1.51212 4.8691 1.53733 4.80836C1.56253 4.74761 1.59948 4.69244 1.64604 4.64599Z" fill="#E7B675"/>
</g>
</svg>
