<svg width="100" height="92" viewBox="0 0 100 92" fill="none" xmlns="http://www.w3.org/2000/svg">
<path d="M92.4144 13.4C93.8089 12.8472 93.8087 12.8468 93.8085 12.8464L93.8081 12.8453L93.807 12.8426L93.804 12.835L93.7944 12.8113C93.7864 12.7917 93.7753 12.7647 93.7611 12.7309C93.7327 12.6632 93.692 12.5678 93.6392 12.4493C93.5337 12.2124 93.3795 11.8811 93.1795 11.4908C92.7824 10.7161 92.1901 9.68051 91.4223 8.68429C89.9896 6.82546 87.3953 4.43901 84.0083 5.57827C82.556 6.06677 80.8949 7.14379 79.2162 8.58285C77.514 10.0421 75.7051 11.9502 73.9625 14.208C70.4812 18.7188 67.2016 24.7081 65.5863 31.4505L65.545 31.6228V31.8V52.6V54.6298L67.4854 54.0339L82.6033 49.391L54.6892 60.9142L63.7568 56.3392L64.5811 55.9233V55V40.6V31.8V31.6202L64.5386 31.4455C64.0281 29.3467 63.4086 27.6384 62.3288 25.9815C61.3529 24.4839 60.0455 23.0969 58.2387 21.5138V12.5H59.0315V11V3V1.5H57.5315H42.4685H40.9685V3V11V12.5H42.4685H42.5541V22.4892C40.1071 25.6888 38.5078 28.3562 37.5317 31.1383C36.5112 34.0469 36.2091 36.9753 36.2117 40.6011V55V55.9233L37.036 56.3392L46.2571 60.9916L35.3476 56.5882L35.2465 54.1381L33.7477 54.2C35.2465 54.1381 35.2465 54.1381 35.2465 54.138L35.2464 54.1374L35.2463 54.1349L35.2459 54.1247L35.2443 54.0841L35.2379 53.9243C35.2323 53.7841 35.2242 53.5779 35.2141 53.3147C35.1941 52.7884 35.1663 52.0342 35.1354 51.1241C35.0736 49.3033 34.9995 46.8608 34.9502 44.3703C34.9007 41.8763 34.8764 39.3487 34.913 37.3525C34.9314 36.352 34.9648 35.5059 35.0154 34.8726C35.0408 34.5546 35.0689 34.3124 35.097 34.1417C35.1088 34.0704 35.1185 34.0254 35.1241 34.0011C35.3314 33.5874 35.7456 32.7981 36.2623 31.8136C36.8175 30.7556 37.4911 29.472 38.1532 28.1871C38.7989 26.934 39.4271 25.692 39.896 24.7074C40.1293 24.2173 40.3318 23.7731 40.4788 23.4154C40.5517 23.2381 40.6194 23.0614 40.6715 22.8998L40.672 22.8982C40.7064 22.7915 40.7973 22.5091 40.7973 22.2C40.7973 21.6061 40.492 21.1847 40.2347 20.9511C39.9963 20.7347 39.7377 20.6153 39.5642 20.5483C39.2092 20.4111 38.8038 20.3414 38.4413 20.3005C37.6863 20.2154 36.7096 20.2135 35.6782 20.2793C34.4008 20.3607 32.9176 20.554 31.5289 20.8813C31.652 18.9869 31.606 16.9416 31.4671 15.2021C31.3667 13.945 31.2135 12.7898 31.0217 11.9219C30.9284 11.4996 30.8108 11.0738 30.6548 10.7229C30.5797 10.5538 30.4593 10.3176 30.2699 10.1002C30.0967 9.90143 29.6701 9.5 28.991 9.5C28.969 9.5 28.9234 9.49749 28.8578 9.49387C28.4412 9.47093 27.2193 9.40361 26.1302 9.65331C25.4578 9.80748 24.6875 10.1025 24.0344 10.6872C23.3537 11.2966 22.8947 12.1375 22.7484 13.1943C22.5117 14.9047 22.7869 17.6236 23.3597 20.27C23.7151 21.9123 24.2083 23.6352 24.8304 25.1822C21.9677 24.9104 19.5603 24.9473 17.4408 25.5349C14.5691 26.3311 12.4056 28.0807 10.3376 30.9161L10.2901 30.9813L10.2498 31.0512C8.99137 33.2354 8.49265 35.2049 8.58247 37.3727C8.66869 39.4538 9.29975 41.652 10.1189 44.2509L10.3169 44.879L10.9132 45.1583L33.1114 55.5583L35.0727 56.4772L12.111 47.209L11.1861 46.8357L10.4841 47.5442L4.93455 53.1441L3.39264 54.7001L5.4008 55.5751L40.2837 70.7751L41.2253 71.1854L41.9483 70.4558L48.2907 64.0559L49.6372 62.6971L49.7207 62.7392L50.3964 63.0801L51.0721 62.7392L51.2696 62.6395L52.4343 63.9827L57.9838 70.3827L58.7059 71.2154L59.7163 70.7751L94.5992 55.5751L96.6074 54.7001L95.0655 53.1441L89.5159 47.5442L88.8079 46.8297L87.8781 47.2135L86.7655 47.6728C87.3532 47.1172 87.9728 46.4704 88.4335 45.8998C88.7027 45.5663 89.0318 45.1225 89.2046 44.6818C89.267 44.5229 89.4817 43.9589 89.2302 43.3311C88.8768 42.4493 88.0382 42.3 87.6577 42.3C87.675 42.3 87.6744 42.2999 87.6508 42.297C87.6136 42.2925 87.5194 42.281 87.349 42.252C87.1099 42.2112 86.7884 42.148 86.3983 42.0618C85.6193 41.8896 84.5975 41.6326 83.4641 41.2984C81.3481 40.6745 78.9266 39.8059 76.9788 38.7586C76.8964 38.5315 76.8311 38.3396 76.7822 38.1685C76.7742 38.1406 76.7671 38.1145 76.7607 38.0902C76.7874 38.0842 76.8165 38.078 76.8479 38.0718L77.0379 38.0345L77.1443 37.983C77.1774 37.9804 77.2945 37.9698 77.5344 37.9917C77.9055 38.0257 78.4027 38.1201 79.0133 38.2759C80.2293 38.5863 81.7189 39.094 83.2183 39.649C84.423 40.0949 85.6015 40.5589 86.6201 40.9601C86.8651 41.0565 87.1008 41.1493 87.3254 41.2374C87.8975 41.4617 88.4079 41.659 88.804 41.801C89.0007 41.8715 89.1888 41.9355 89.3522 41.9836L89.3611 41.9862C89.4659 42.0171 89.7468 42.1 90.036 42.1C90.4612 42.1 90.7906 41.9426 90.9887 41.8192C91.1929 41.692 91.3527 41.5419 91.4687 41.4177C91.7003 41.1699 91.896 40.8744 92.0543 40.6007C92.3775 40.0416 92.6764 39.3407 92.8959 38.6608C93.1083 38.0029 93.2911 37.2281 93.2894 36.5462C93.2886 36.223 93.2485 35.7337 92.992 35.2746C92.6711 34.7003 92.0739 34.3 91.3333 34.3C91.3353 34.3 91.3363 34.3 91.3363 34.3C91.3363 34.2998 91.2947 34.2981 91.194 34.2851C91.0882 34.2715 90.9487 34.2495 90.7743 34.2181C90.4258 34.1552 89.975 34.0611 89.4426 33.9394C88.3799 33.6966 87.0334 33.3537 85.6087 32.959C83.0783 32.2581 80.3951 31.4197 78.6343 30.7135C78.5708 30.3932 78.5386 30.1155 78.5336 29.8229C78.5283 29.5177 78.5524 29.1668 78.6234 28.7121C78.8101 28.754 79.0277 28.8086 79.2774 28.8776C80.6118 29.2466 82.4373 29.9052 84.3275 30.6202C85.0594 30.8971 85.8043 31.1837 86.5255 31.4612C87.6287 31.8857 88.6764 32.2889 89.5373 32.6031C90.2482 32.8625 90.8917 33.0838 91.3728 33.2139C91.5947 33.2739 91.8794 33.3423 92.1495 33.3594C92.259 33.3664 92.5518 33.3809 92.876 33.265C93.0557 33.2008 93.327 33.0673 93.5568 32.7909C93.8047 32.4928 93.9124 32.1387 93.9144 31.8091C93.9144 31.8105 93.9144 31.8112 93.9145 31.8112C93.915 31.8112 93.9184 31.7641 93.9384 31.644C93.9611 31.5078 93.9942 31.3391 94.0368 31.1278C94.0442 31.0911 94.0519 31.0533 94.0597 31.0145C94.1381 30.6276 94.2367 30.1408 94.3049 29.6612C94.3771 29.1538 94.4366 28.5221 94.3565 27.9395C94.2841 27.4129 94.0111 26.3914 92.9349 25.9932C92.7123 25.9108 92.2985 25.7717 91.7383 25.5833C89.4114 24.8009 84.5586 23.169 80.3853 21.2276C82.0609 21.0279 83.4423 21.0659 84.9988 21.4462C86.7009 21.862 88.6841 22.7043 91.5297 24.2275C91.5578 24.2483 91.5877 24.2688 91.6192 24.2888C91.9159 24.4764 92.3485 24.5975 92.821 24.4671C93.2307 24.354 93.4732 24.104 93.5783 23.977C93.7671 23.749 93.8389 23.5198 93.8531 23.4746L93.8544 23.4706C93.8798 23.3908 93.8933 23.3251 93.8997 23.2922C93.913 23.2232 93.9194 23.165 93.9223 23.137C93.9335 23.0296 93.9384 22.8957 93.9415 22.7881C93.9487 22.5432 93.9529 22.1759 93.9552 21.7378C93.9598 20.8553 93.9567 19.632 93.9507 18.3971C93.9446 17.1609 93.9355 15.9081 93.928 14.9646C93.9242 14.4928 93.9208 14.0982 93.9183 13.8215L93.9154 13.5L93.9146 13.415L93.9144 13.3932L93.9144 13.3876L93.9144 13.3862L93.9143 13.3858C93.9143 13.3857 93.9143 13.3857 92.4144 13.4ZM92.4144 13.4L93.8089 12.8472L93.9117 13.1067L93.9143 13.3857L92.4144 13.4ZM50.482 87V89.2503L52.5591 88.3846L89.0275 73.1846L89.9505 72.7999V71.8V61.4V59.1089L87.8505 60.0252L59.4591 72.4142L53.0474 65.9441L50.482 63.3554V67V87ZM48.2442 88.3889L50.3108 89.2319V87V67V63.6115L47.8024 65.8896L40.611 72.4206L12.1805 59.2392L10.0495 58.2512V60.6V71.8V72.8081L10.983 73.1889L48.2442 88.3889ZM77.8633 28.5983C77.8631 28.598 77.8689 28.5974 77.8816 28.5973C77.8698 28.5985 77.8634 28.5986 77.8633 28.5983Z" stroke="#E7B675" stroke-width="3"/>
</svg>
